<?xml version="1.0" encoding="UTF-8"?>
<svg id="Layer_1" data-name="Layer 1" xmlns="http://www.w3.org/2000/svg" viewBox="0 0 955.5 955.5">
  <defs>
    <style>
      .cls-1 {
        stroke-width: 0px;
      }
    </style>
  </defs>
  <path class="cls-1" d="M157.07,587.63c0-38.17,22.1-78.36,38.17-106.48,24.11-42.19,56.26-92.43,92.42-136.63,8.04-10.04,20.09-10.04,28.13-4.02,12.06,12.06,22.1,34.16,10.04,48.22-34.15,42.19-68.31,88.41-112.51,176.81,50.23-24.11,138.63-80.37,206.95-158.73,16.07-30.14,34.15-56.26,50.23-70.32,24.11-24.11,48.22,22.1,38.17,40.18-8.04,20.09-24.11,40.18-50.23,72.33l-4.02,6.03c-22.1,40.18-44.2,94.43-44.2,138.63,62.28-2.01,216.99-166.76,235.07-198.91l2.01-12.06c4.02-22.1,16.07-44.2,34.15-64.29,20.09-22.1,42.19,20.09,42.19,34.16-4.02,20.09-14.07,44.2-30.14,66.3,6.03,102.47,178.82,38.17,221.01,20.09,24.11-14.07,48.22,36.16,22.1,50.23-88.4,46.21-202.93,78.36-275.26-20.09-42.19,56.26-168.77,192.88-237.08,192.88s-56.26-98.45-52.24-126.58c-38.17,34.16-128.59,104.47-182.84,98.45-22.1-10.04-32.15-36.17-32.15-46.21Z"/>
  <path class="cls-1" d="M797.45,716.62c-73.57,98.3-191.4,161.54-323.95,160.16-213.8-2.23-389.67-175.67-394.7-389.42-5.29-224.79,175.35-408.68,398.95-408.68s399.06,178.67,399.06,399.06c0,18.12-.47,19.06-2.81,36.53,0,0,22.48,0,81.5-36.53C955.5,210.07,735.35-6.2,466.23.14,212.79,6.1,6.1,212.79.14,466.23c-6.33,269.12,209.93,489.27,477.61,489.27,176.8,0,331.06-96.12,413.68-238.88h0c-22.88-31.07-69.09-31.77-92.89-1.39l-1.09,1.39Z"/>
</svg>